<?xml version="1.0" encoding="utf-8"?>
<!-- Generator: Adobe Illustrator 16.0.0, SVG Export Plug-In . SVG Version: 6.00 Build 0)  -->
<!DOCTYPE svg PUBLIC "-//W3C//DTD SVG 1.1//EN" "http://www.w3.org/Graphics/SVG/1.1/DTD/svg11.dtd">
<svg version="1.1" xmlns="http://www.w3.org/2000/svg" xmlns:xlink="http://www.w3.org/1999/xlink" x="0px" y="0px" width="3332px"
	 height="2178px" viewBox="0 0 3332 2178" enable-background="new 0 0 3332 2178" xml:space="preserve">
<g id="fill">
	<path fill="#FFFFFF" stroke="#FFFFFF" stroke-width="0.25" stroke-miterlimit="10" d="M3292.917,1010.524
		c-17.283-38.982-22.316-82.417-41.039-120.777c-14.067-24.749-32.905-45.863-50.615-68.031c-4.733,0.971-9.582,1.109-14.207,0.262
		c-9.817-1.798-18.691-7.486-24.464-15.62c-6.347-8.944-7.533-18.599-6.451-29.216c0.11-1.083,0.201-2.167,0.291-3.25
		c0.107-12.991-1.371-25.884-3.895-38.624c-8.821-35.749-24.42-69.323-39.611-102.725c-1.364-3.001-2.2-6.11-2.568-9.245
		c-16.434-10.47-30.89-24.643-40.011-41.74c-5.96-11.172-11.294-22.07-14.832-34.244c-3.717-12.791-6.498-25.893-8.866-38.996
		c-4.988-27.594-8.748-55.288-14.598-82.742c-6.435-30.205-13.592-60.321-18.035-90.906c-0.849-5.842-1.579-11.697-2.192-17.559
		c-8.093-13.848-15.02-28.348-20.647-43.365c-1.702-4.542-3.341-9.106-4.971-13.674c-1.281-0.145-2.561-0.315-3.838-0.53
		c-13.084-2.201-26.25-8.729-35.67-18.135c-6.263-6.252-11.867-13.043-17.686-19.668c-3.312-3.273-6.809-6.2-10.581-8.903
		c-8.525-4.979-17.477-9.076-26.773-12.413c-39.912-11.589-82.12-10.506-122.704-18.703c-48.796,22.006-99.903,38.63-152.995,46.595
		c-14.273,2.141-28.643,3.676-43.059,4.414c-16.16,0.827-32.288,1.638-48.438-0.219c-16.24-1.867-31.327-7.708-45.801-15.056
		c-9.25-4.696-18.515-9.348-28.228-12.966c-6.827-1.825-13.751-2.996-20.841-3.476c-6.968-0.471-14.147-4.764-19.532-9.947
		c-14.42,4.778-29.164,8.463-44.486,10.064c-28.193,2.945-56.108,7.037-84.474,8.378c-30.962,1.464-62.176,0.953-92.996-2.496
		c-8.399-0.94-15.622-5.226-21.025-11.282c-6.125-0.055-12.249-0.204-18.367-0.483c-16.556-0.754-33.188-1.161-49.37-5.075
		c-28.873-6.983-55.927-19.174-83.833-29.013c-13.871-3.828-27.709-7.917-41.232-12.829c-12.841-4.663-26.134-10.429-36.463-19.598
		c-1.089-0.966-2.134-1.958-3.156-2.964c-8.393,1.729-16.023,0.024-24.54-2.817c-38.068-12.699-75.979-25.892-113.551-39.997
		c-18.031-6.769-36.181-13.42-53.805-21.201c-13.919-6.145-27.689-12.667-42.033-17.758c-9.697-2.739-19.441-4.421-29.501-5.154
		c-6.86-0.199-13.711-0.235-20.555-0.148c-4.35,5.595-10.325,10.564-16.649,12.043c-16.133,3.772-32.158,8-48.055,12.672
		c-29.167,8.572-57.937,18.414-86.503,28.801c-4.417,5.473-10.142,9.077-16.935,12.524
		c-57.645,29.258-119.896,48.192-183.677,57.356c-3.315,11.411-11.531,21.349-23.312,25.14
		c-36.315,11.686-74.229,19.228-112.185,22.959c-46.015,4.524-93.035,4.539-139.153,1.011c-18.785-1.437-37.922-3.5-56.046-8.873
		c-9.928-2.943-20.776-5.879-29.674-11.511c-1.952-1.235-4.088-2.49-6.217-3.826c-13.594,11.027-28.201,20.961-44.527,27.504
		c-12.944,5.188-25.789,7.086-39.365,6.724c-0.542,0.456-1.081,0.916-1.626,1.364c-36.059,29.68-89.966,27.554-132.538,16.227
		c-35.047-9.326-70.146-23.521-100.51-44.01c-8.423,1.739-16.892,3.22-25.425,4.114c-30.932,3.241-61.996,1.094-92.98-0.03
		c-23.768-0.862-48.206-1.618-71.74,2.687c-5.021,1.367-9.922,3.074-14.666,5.209c-3.221,1.99-6.292,4.19-9.226,6.585
		c-5.192,5.349-9.784,11.215-13.966,17.394c-9.65,15.387-19.068,30.813-29.871,45.477c-8.979,12.19-18.213,24.202-26.636,36.786
		c-6.933,11.309-12.893,23.116-17.324,35.632c-4.549,15.181-8.292,30.655-12.72,45.865c-5.087,17.475-10.294,34.917-15.122,52.466
		c-4.108,14.931-5.686,30.001-8.042,45.258c-0.903,5.843-1.998,11.633-3.535,17.33c10.078,11.403,12.388,27.917,6.028,42.01
		c-7.555,16.745-19.277,30.524-32.538,42.945c-10.813,10.128-21.353,20.353-29.901,32.454
		c-8.871,14.955-15.675,31.193-22.097,47.295c-6.762,16.955-12.955,34.121-18.668,51.455c-6.435,20.337-12.239,40.863-17.614,61.506
		c-0.003,2.283-0.196,4.571-0.61,6.832c-1.925,10.51-7.707,17.761-15.62,24.463c-9.57,8.105-20.162,14.844-30.475,21.946
		c-0.533,1.736-1.185,3.438-1.967,5.089c-3.567,7.524-8.738,12.3-15.183,16.233c0.021-0.011,0.041-0.021,0.062-0.033
		c-0.064,0.035-0.125,0.074-0.189,0.109c-0.725,0.439-1.464,0.87-2.22,1.292c-0.868,0.537-1.71,1.107-2.538,1.698
		c-0.4,0.469-0.792,0.945-1.174,1.429c-3.304,6.298-5.726,13-8.238,19.663c-3.638,9.644-8.011,18.234-13.555,26.753
		c-11.333,18.851-20.477,38.516-27.644,59.304c-11.68,38.426-15.326,79.675-17.234,119.557c0.16-3.438,0.319-6.877,0.478-10.315
		c-0.809,17.665-1.875,35.312-2.795,52.967c4.684,7.726,9.011,15.638,12.081,24.193c4.357,12.144,6.837,25.801,4.73,38.724
		c1.385,6.13,2.456,12.357,3.548,18.562c3.483,6.202,7.09,12.396,9.836,18.91c5.983,4.343,10.746,10.363,13.317,17.54
		c2.583,7.209,5.591,14.224,8.982,21.074c11.44,20.213,25.986,38.345,41.021,56.001c14.458,16.981,29.518,33.617,41.364,52.595
		c6.928,11.099,13.512,22.757,18.245,34.98c4.192,10.827,7.626,22.823,8.006,34.497c6.499,4.422,12.399,11.062,14.375,18.341
		c5.5,20.253,7.732,41.046,11.855,61.547c0.536,2.108,1.106,4.207,1.733,6.286c4.392,2.645,8.391,6.127,11.743,10.339
		c1.806,2.271,3.683,4.477,5.602,6.647c19.222,20.117,41.146,39.505,50.063,66.673c1.957,5.961,2.577,12.125,1.897,18.055
		c0.917,2.72,1.559,5.568,1.865,8.521c3.187,30.666,1.762,61.469,0.73,92.209c-0.487,14.514-0.879,28.949-0.338,43.322
		c2.502,1.297,4.86,2.898,7,4.823c22.529,20.272,31.007,50.112,35.709,79.036c1.813,11.158,2.827,22.332,3.272,33.53
		c2.778,7.587,5.808,15.084,9.168,22.462c8.843,0.097,17.855,2.902,23.848,8.964c6.35,6.424,12.525,13.258,18.084,20.532
		c7.766,2.337,15.532,4.776,22.637,8.754c7.565,4.234,14.949,8.971,21.897,14.167c4.769,3.566,9.358,7.35,13.904,11.186
		c3.313,0.438,6.646,0.79,10.01,1.035c23.73,0.761,47.68,0.265,71.384-0.133c23.214-0.389,46.404-1.823,69.2-6.306
		c13.464-3.453,26.27-8.335,39.407-12.987c13.309-4.715,26.823-8.748,40.59-11.893c30.182-6.894,60.277-10.477,91.252-10.692
		c34.093-0.236,68.729,1.158,101.685,10.635c17.787,5.115,32.741,12.521,47.421,23.946c3.426,2.666,6.774,5.422,10.117,8.184
		c35.288-10.907,71.601-18.399,106.197-31.526c12.411-4.709,26.031-2.21,36.204,5.212c26.464-2.25,53.156-2.651,79.393,0.387
		c50.486,5.847,98.216,25.099,145.626,42.377c42.483,15.482,85.584,29.151,128.484,43.412
		c76.867,25.553,152.902,53.557,222.061,95.646c6.916-2.905,14.017-5.367,21.414-7.348c12.821-3.432,25.868-6.013,38.618-9.711
		c13.869-4.022,27.417-9.653,41.004-14.539c13.834-4.975,27.687-9.91,41.66-14.48c54.974-17.978,110.507-33.805,164.026-55.95
		c7.05-6.826,15.511-12.443,25.17-16.854c14.419-6.584,30.525-9.554,45.636-14.206c43.05-13.257,87.381-25.774,132.74-26.196
		c28.474-6.88,57.165-13.605,86.297-16.978c27.729-3.209,55.747-3.545,83.563-1.198c20.271,1.71,40.711,4.625,60.237,10.477
		c13.704,4.107,26.927,8.943,38.933,15.761c9.355-6.615,18.011-14.256,27.897-20.109c9.194-5.443,18.781-9.998,28.4-14.497
		c6.292-7.403,15.103-12.461,25.135-12.467c0.823-0.001,1.646-0.003,2.469-0.004c5.211-1.602,10.597-2.163,16.846-1.019
		c1.348,0.247,2.676,0.574,3.982,0.964c22.336-0.045,44.662,0.1,66.965,1.785c26.457,2,52.231,7.154,77.648,14.683
		c23.995,7.105,47.924,15.404,72.825,18.75c19.756,2.654,39.907,3.844,59.877,4.81c33.367,1.427,66.984,0.781,99.799-5.846
		c16.173-4.03,31.862-9.625,46.808-17.021c11.465-6.435,22.423-13.866,32.373-22.461c8.927-8.811,16.851-18.516,23.893-28.899
		c11.758-19.403,20.568-40.377,27.801-61.861c10.376-33.33,17.46-67.53,26.156-101.312c-0.496-38.58-6.525-79.95,7.247-115.883
		c0.317-4.572,1.521-8.981,3.826-12.777c2.438-4.015,4.578-8.265,7.955-11.554c3.55-3.46,7.104-6.536,10.818-9.707
		c-1.179,1.088-2.357,2.175-3.536,3.262c2.015-1.794,4.021-3.436,6.098-4.881c5.441-10.153,9.588-21.019,13.968-31.637
		c2.687-6.515,5.372-13.062,8.584-19.341c3.735-7.301,8.435-13.982,13.009-20.754c14.972-25.065,22.893-53.131,33.431-80.17
		c8.453-21.69,18.036-43.178,28.188-64.123c11.624-23.98,24.905-47.576,41.159-68.75c9.437-12.294,20.263-24.106,32.396-34.171
		c5.85-26.287,15.645-51.599,24.136-77.151c3.77-12.091,7.104-24.345,9.246-36.835c2.498-14.572,3.56-29.335,6.05-43.923
		c5.091-29.832,12.104-59.331,15.753-89.398C3302.928,1026.074,3296.724,1019.109,3292.917,1010.524z"/>
</g>
<g id="Layer_1">
	<g transform="translate(0.000000,2178.000000) scale(0.100000,-0.100000)">
		<path fill="#E41E25" d="M16419.998,21511c-972.002-423.004-1169.004-506.998-1605-681.002
			C12867,20051,11377.996,19679.998,10399.002,19731c-362.002,17.996-610,76-842.002,196c-95,49-222.002,139-272.002,191.996
			l-29.004,31.002l-85.996-82.998c-292.998-289.004-612.998-464.004-980.995-539.004c-100-20-142.002-22.998-339.004-22.998
			c-200,1.002-242.002,3.998-385,28.998c-210,36.002-437.002,94-835,211.002c-532.002,157.002-752.998,207.998-1040,240
			c-312.998,35-635,28.998-907.998-15C3889.999,19841,3329.999,19383.996,3014.999,18611
			C2906,18342.996,2817.001,17992.996,2756,17599.998C2702.001,17247,2679.999,16927,2679.999,16482v-324.004L2553.998,16027
			c-566.001-587.002-913.999-1302.002-1018.999-2092.001l-17.998-130l-138.003-132.998
			c-336.997-324.004-606-687.002-803.998-1081.006c-527.998-1053.994-540-2270-33.999-3328.994
			c206.997-434.004,477.997-807.002,837.997-1154.004l138.003-132.998l17.998-130c103.999-787.998,453.999-1505,1018.999-2092.001
			l126.001-130.996v-324.004c0-445,22.002-765,76.001-1117.998c107.998-700,289.995-1200,578.003-1584.003
			c72.998-97.998,235.996-267.998,330.996-345.996c157.002-129.004,382.002-255,585-330c285-105,669.004-160,1030-145.996
			c430.996,15,682.002,63.994,1350,260.996c397.998,117.002,625,175,835,210.996c142.998,25,185,28.008,385,29.004
			c197.002,0,239.004-2.998,339.004-22.998c367.997-75,687.997-250,980.995-539.004l85.996-82.998l29.004,30.996
			c17.002,18.008,64.004,57.002,105.996,89.004c522.002,390,1495,405,2914.004,45c997.002-252.998,2137.002-665,3595-1300
			c590.996-257.002,749.004-325,760-325s169.004,67.998,760,325c2290.996,997.998,3952.998,1500.996,5137.002,1555
			c410,17.998,772.998-24.004,1037.002-120.996c161.992-60,356.99-178.008,440.994-268.008L24064,1630l85.996,82.998
			c293,289.004,613,464.004,980.996,539.004c100,20,142.004,22.998,339.004,22.998c200-0.996,242.004-4.004,385-29.004
			c210-35.996,437.004-93.994,835-210.996c532.004-157.002,753-207.998,1040-240c313-35,635-29.004,908,15
			c792,129.004,1352,585.996,1667,1359.003c140,343.994,248,822.998,299.004,1325.996c26.992,257.002,35.996,469.004,35.996,804.004
			v322.998l125.996,130.996c565,587.002,915,1304.003,1019.004,2092.001l17.998,130l137.998,132.998
			c360,347.002,631.006,720,838.008,1154.004c495,1033.994,495,2222.002,0,3255.996
			c-207.002,434.004-478.008,807.002-838.008,1154.004l-137.998,132.998l-17.998,130
			c-104.004,787.997-454.004,1504.999-1019.004,2092.001l-125.996,130.996v322.998c0,556.006-35,948.008-125,1399.004
			c-112,557.998-279.004,971.002-529.004,1303.998c-72.996,98.004-235.996,268.004-330.996,346.002c-157,128.998-382,255-585,330
			c-285,105-669.004,160-1030,146.002c-430.996-15-682-64-1350-261.002c-397.996-117.002-625-175-835-211.002
			c-142.996-25-185-27.996-385-28.998c-197,0-239.004,2.998-339.004,22.998c-367.996,75-687.996,250-980.996,539.004l-85.996,82.998
			l-29.004-31.002c-17-17.996-64.004-56.996-105.996-88.998c-522-390-1497-405-2914.002-45c-1002.998,255-2135.996,665-3595,1300
			c-612.002,267.002-749.004,325-762.002,325C16650.994,21609.002,16544.002,21564.998,16419.998,21511z M17045.994,21034.002
			C18137,20556,18984.002,20223.992,19794.998,19957c1929.004-636,3259.004-759.004,4119.998-381
			c55,23.998,104.004,43.998,110,43.998s74.004-42.002,150.996-92.002c565-374,1166.008-475,1913.008-322.998
			c183,37.002,338,77.998,740.996,195c628,182.998,804.004,220,1147.004,240c330,20,660-20,903.992-111.002
			c421.008-153.998,740-471,952.004-943.998c174.004-390,296.004-965,337.996-1600c6.008-92.998,11.008-349.004,10-567.002v-397.998
			l95-87.002c596.008-550,991.008-1343.994,1065-2142.001l13.008-132.998l140-127.998c656.992-595.996,1055-1350,1172.998-2220
			c25.996-190.996,25.996-649.004,0-840c-117.002-865-512.998-1617.998-1162.998-2210.996l-150-137.002l-13.008-132.998
			c-73.992-798.008-468.992-1592.001-1065-2142.001l-95-87.002v-397.998c1.008-541.006-21.992-862.998-90.996-1262.002
			c-160.996-935.996-495-1502.001-1049.004-1779.003C28755.992,2177.998,28387.996,2115,27977,2140
			c-343,20-519.004,57.002-1147.004,240C26427,2497.002,26272,2537.998,26089,2575c-747,152.001-1349.004,50.996-1914.004-322.002
			c-77-50.996-144.004-92.998-150-92.998s-55,20-110,44.004c-862,377.998-2190.994,255-4119.998-381.006
			c-805.996-265.996-1635-590-2720-1063.994l-415-181.006l-415,181.006c-1279.004,558.994-2312.998,951.992-3195,1215
			c-1687.998,502.998-2855,575.996-3645,230c-55-24.004-104.004-44.004-110-44.004s-72.998,42.002-150,92.998
			c-565,372.998-1167.001,474.003-1914.003,322.002c-182.998-37.002-337.998-77.998-740.996-195
			c-627.998-182.998-804.004-220-1147.002-240c-410.996-25-778.994,37.998-1063.994,180.996
			C3724.999,2597.998,3392.001,3164.003,3229.999,4100c-67.998,397.998-92.002,720-90.996,1262.002v397.002L3044.999,5845
			C2936,5945.996,2777.997,6120,2671,6257.998c-388.999,499.003-635,1114.003-692.002,1731.005L1966,8122.001l-150,137.002
			c-650,592.998-1046,1345.996-1163.002,2210.996c-25.996,190.996-25.996,649.004,0,840c117.002,865.996,511,1615,1162.001,2210
			L1966,13657.997l12.998,132.998C2036,14407.996,2282.001,15022.996,2671,15522c106.997,137.998,265,312.002,373.999,412.998
			l94.004,85.996v397.002c-1.006,542.002,21.992,862.998,90.996,1262.002c160.996,935,495,1502.002,1049.004,1778.998
			c285,143.004,651.992,206.002,1060.996,181.002c345.996-20,520.996-57.002,1150-240c402.998-117.002,557.998-157.998,740.996-195
			c747.002-152.002,1348.007-51.002,1913.007,322.998c76.992,50,145,92.002,150.996,92.002s55-20,110-43.998
			c617.002-271.002,1464.004-284,2605-40c1122.002,240,2522.998,731.996,4255,1495c209.004,91.996,385,168.002,390.996,168.002
			C16660.994,21199.998,16837,21124.998,17045.994,21034.002z"/>
		<path fill="#E41E25" d="M16374.998,20759.002c-1149.004-508.002-2292.002-942.002-3180-1209.004
			c-835-250-1489.004-387.002-2160-452.002c-205-19-747.998-15.996-925,5c-254.004,32.002-522.002,91-695.996,156l-81.006,29
			l-28.994-19c-65-43.998-228.008-131.996-331.006-177.996c-373.994-169-814.999-255-1207.997-236.002
			c-405,18.998-695,77.002-1375,275c-725,211.002-875,237.002-1277.998,227.002c-305-8.004-469.004-44.004-672.002-148.004
			c-237.998-121.996-434.004-332.996-584.004-628.998c-258.994-507.998-388.994-1314.004-372.998-2300.996l6.006-355
			l-159.004-153.008c-315-300-521.001-573.994-693.999-920c-142.002-282.998-241.001-590.996-290-900.995
			c-12.002-72.998-46.001-377.998-46.001-410.996c0-3.008-62.002-60-137.998-126.006
			c-577.002-505.996-937.002-1090.996-1101.001-1785c-62.002-262.002-83.999-455.996-83.999-737.998
			c0-422.002,67.998-785,217.998-1170c207.998-530,507.998-949.004,967.002-1352.998c75.996-66.006,137.998-122.998,137.998-126.006
			c0-32.998,33.999-337.998,46.001-410.996c48.999-310,147.998-617.998,290-900.996c172.998-346.006,378.999-620,693.999-920
			l159.004-153.008l-6.006-355c-10-601.992,25-1053.994,119.004-1515c107.998-536.992,277.002-916.992,520-1171.992
			c112.002-116.005,193.994-179.003,317.998-243.007c202.998-103.994,367.002-140,672.002-147.998
			c402.998-10,552.998,16.006,1277.998,227.002c680,197.998,970,255.996,1375,275c392.998,19.004,834.003-67.002,1207.997-235.996
			c102.998-46.006,266.006-134.004,331.006-178.008l28.994-18.994l81.006,28.994c173.994,65,441.992,124.004,695.996,156.006
			c180,22.002,710,25,925,5c1337.998-124.004,2975-630,5267.998-1629.004l357.002-155l357.998,155
			c2292.002,997.998,3930,1505,5267.002,1629.004c215,20,745,17.002,925-5c254.004-32.002,522.002-91.006,695.994-156.006
			l81.008-28.994l28.992,18.994c65,44.004,228.008,132.002,331.008,178.008c373.992,168.994,815,255,1207.996,235.996
			c405-19.004,695-77.002,1375-275c725-210.996,875-237.002,1278-227.002c305,7.998,469.004,44.004,672,147.998
			c124.004,64.004,205.996,127.002,318,243.007c437.996,457.998,660,1395,639.004,2686.992l-6.008,355l159.004,153.008
			c315,300,520.996,573.994,694.004,920c141.992,282.998,240.996,590.996,290,900.996c11.992,72.998,45.996,377.998,45.996,410.996
			c0,3.008,62.004,60,138,126.006c577,505.996,937,1090.996,1101.004,1785c61.992,262.002,83.994,455.996,83.994,737.998
			c0,422.002-67.998,785-217.998,1170c-207.998,530-507.998,949.004-967,1352.998c-75.996,66.006-138,122.998-138,126.006
			c0,32.998-34.004,337.998-45.996,410.996c-49.004,309.999-148.008,617.997-290,900.995c-173.008,346.006-379.004,620-694.004,920
			l-159.004,153.008l6.008,355c12,725-47.004,1292.998-188,1805.996c-105,385-253.008,672.998-452,881.002
			c-111.008,116-193,180-317.004,242.996c-202.996,104-367,140-672,148.004c-403,10-553-16-1278-227.002
			c-680-197.998-970-256.002-1375-275C25162,18836,24720.992,18922,24347,19091c-103,46-266.008,133.998-331.008,177.996l-28.992,19
			l-81.008-29c-173.992-65-441.99-123.998-695.994-156c-177.002-20.996-720-24-925-5
			c-1372.002,132.002-3029.004,648.004-5355,1666.006c-145,63.994-269.004,115.996-275,115
			C16649.998,20879.002,16524.002,20824.002,16374.998,20759.002z M16815.994,20534.002
			C17285.994,20327,17927,20062,18369.998,19892c2547.998-979.004,4275-1265,5497.002-910l72.996,20.996L24082,18932
			c348.992-172.002,675-267.002,1058.992-308.004c118.008-11.996,210-15,394.004-11c459.004,11,775,72.002,1555,302.002
			c478,141.002,620.996,172.998,855,195c309.004,27.998,552.004-3.998,750-100c349.004-168.998,580-576.002,720-1263.998
			c90.996-450.006,109.004-679,110-1361.998v-551.006l170-162.002c202.004-191.992,305.996-305.996,424.004-460.996
			c276.992-367.002,460-787.002,540-1239.999c15-85.996,60.996-480,60.996-530.996c0-3.008,88-84.004,195-179.004
			c285-252.002,438-424.004,617.002-694.004c152.998-230.996,292.998-527.998,372.002-787.998
			c176.992-587.002,176.992-1188.994,0-1775.996c-79.004-260-219.004-557.002-372.002-787.998
			c-179.002-270-332.002-442.002-617.002-694.004c-107-95-195-175.996-195-179.004c0-50.996-45.996-445-60.996-530.996
			c-80-452.998-263.008-872.998-540-1240c-118.008-155-222-269.003-424.004-460.996l-170-162.002v-551.006
			c-0.996-446.992-4.004-585-17.996-730.996c-78-799.004-249.004-1347.998-522.004-1667.998
			C28759,2730,28427,2625.996,27944.996,2670c-234.004,22.002-377,54.003-855,195c-777.996,229.004-1097.996,290.996-1555,302.002
			c-184.004,3.994-275.996,0.996-394.004-11.006C24757,3115,24430.992,3020,24082,2847.998l-142.004-70.996l-72.996,20.996
			c-957.998,279.004-2231.006,160-3947.002-367.998c-894.004-275-2120-745-3187.002-1220l-72.002-32.998L16372,1302.998
			c-907.998,395-1701.006,705-2452.002,959.004c-1985.996,670-3415,842.001-4467.002,535.996l-72.998-20.996l-142.002,70.996
			c-348.994,172.002-675,267.002-1058.993,307.998c-118.008,12.002-210,15-394.004,11.006
			c-457.002-11.006-777.002-72.998-1555-302.002c-477.998-140.996-620.996-172.998-855-195c-309.004-27.998-552.002,4.004-750,100
			c-349.004,169.004-580,575.996-720,1264.004c-90.996,450-109.004,678.994-110,1361.992v551.006l-170,162.002
			c-202.002,191.992-305.996,305.996-424.004,460.996c-276.997,367.002-459.995,787.002-539.995,1240
			c-15,85.996-61.001,480-61.001,530.996c0,3.008-87.998,84.004-195,179.004c-285,252.002-437.998,424.004-617.002,694.004
			c-152.998,230.996-292.998,527.998-371.997,787.998c-177.002,587.002-177.002,1188.994,0,1775.996
			c78.999,260,218.999,557.002,371.997,787.998c179.004,270,332.002,442.002,617.002,694.004c107.002,95,195,175.996,195,179.004
			c0,50.996,46.001,445,61.001,530.996c80,452.997,262.998,872.997,539.995,1239.999c118.008,155,222.002,269.004,424.004,460.996
			l170,162.002v551.006c0.996,446.992,4.004,585,17.998,730.996c77.998,799,249.004,1347.998,522.002,1667.998
			c225.996,267.002,557.998,371,1040,327.002c234.004-22.002,377.002-53.998,855-195c780-230,1095.996-291.002,1555-302.002
			c184.004-4,275.996-0.996,394.004,11c383.993,41.002,709.999,136.002,1058.993,308.004l142.002,70.996l72.998-20.996
			c804.004-234.004,1830-187.002,3147.002,142.998c832.002,208.998,1845.996,553.998,2930,997.002
			c290.996,117.998,922.998,387.998,1050,445.996c35.996,17.002,70,31.006,75.996,31.006
			C16662,20599.998,16734.002,20569.998,16815.994,20534.002z"/>
		<path fill="#E41E25" d="M16219.998,20358.992c-2195-949.996-3927.002-1464.996-5247.998-1559.996
			c-246.006-16.996-774.004-6.996-972.002,20C9812.996,18844.998,9632,18881,9487,18921l-107.998,28.998L9307,18911
			c-224.004-122.004-559.004-239-844.003-295c-230-45-410-59-677.998-53.004c-460,11-772.002,71-1525,292.002
			c-575,168.998-724.004,200-1010,212.002c-474.004,19-757.998-112.002-977.998-450c-230-356-379.004-966-422.998-1737.002
			c-8.008-134.004-10-352.998-6.006-635l6.006-430l-179.004-170c-200.996-189.004-315.996-314.004-435-472.998
			c-250.996-332.998-425-719.004-510-1129.003c-23.999-115.996-42.002-252.002-66.001-505.996l-11.997-127.998l-209.004-186.006
			c-386.997-343.994-602.998-620-797.998-1017.998c-211.001-430-303.999-832.998-303.999-1315s92.998-885,303.999-1315
			c195-397.998,411.001-674.004,797.998-1017.998l209.004-186.006l11.997-127.998c23.999-253.994,42.002-390,66.001-505.996
			c85-410,259.004-796.006,510-1129.004c119.004-158.994,234.004-283.994,435-472.998l179.004-170l-6.006-430
			c-10-734.004,32.002-1194.004,152.998-1677.002c56.006-225,100-350.996,174.004-505c232.998-485.996,530-662.001,1080-640
			c285.996,12.002,435,42.998,1010,212.002c752.998,220.996,1065,280.996,1525,292.002c267.998,5.996,447.998-7.998,677.998-52.998
			c287.001-56.006,632.997-177.002,854.003-300l62.002-34.004L9487,2859.003c145,40,325.996,75.996,512.998,101.992
			c197.998,27.002,725.996,37.002,972.002,20c1322.002-95,2997.002-592.998,5240-1555.996l447.998-192.002L17107,1425
			c2250.996,965,3918.994,1460.996,5240.996,1555.996c246.006,17.002,774.004,7.002,972.002-20
			c187.002-25.996,367.998-61.992,512.998-101.992l107.996-29.004l62.004,34.004c221.004,122.998,567,243.994,854.004,300
			c230,45,410,58.994,677.996,52.998c460-11.006,772.004-71.006,1525-292.002c575-169.004,724.004-200,1010-212.002
			c474.004-18.994,758,112.002,978,450c230,356.006,379.004,966.006,422.996,1737.002c8.008,134.004,10,352.998,6.008,635
			l-6.008,430l179.004,170c200.996,189.004,315.996,314.004,435,472.998c250.996,332.998,425,719.004,510,1129.004
			c24.004,115.996,42.004,252.002,65.996,505.996l12.004,127.998l205,182.002c386.004,342.002,607,622.998,802,1022.002
			c210.996,430,304.004,832.998,304.004,1315s-93.008,885-304.004,1315c-195,397.998-410.996,674.004-797.996,1017.998
			l-209.004,186.006l-12.004,127.998c-23.992,253.994-41.992,390-65.996,505.996c-85,409.999-259.004,796.005-510,1129.003
			c-119.004,158.994-234.004,283.994-435,472.998l-179.004,170l6.008,430c10,734.004-32.004,1194.004-153,1677.002
			c-56.004,225-100,350.996-174.004,505c-232.996,485.996-530,661.996-1080,640c-285.996-12.002-435-43.004-1010-212.002
			c-752.996-221.002-1065-281.002-1525-292.002C25267,18557,25087,18571,24857,18616c-285,56-620,172.996-844.004,295
			l-72.004,38.998l-107.996-28.998c-145-40-325.996-76.002-512.998-102.004c-197.998-26.996-725.996-36.996-972.002-20
			c-1318.994,95-3010,597.004-5232.998,1553.004c-242.002,104-444.004,190.996-450,192.998
			C16659.998,20546,16459.002,20462.996,16219.998,20358.992z M22034.002,16019.998c100-37.998,166.992-139.004,151.992-232.998
			c-20.996-127.002-131.992-207.002-265.996-192.998c-144.004,13.994-232.998,101.992-232.998,226.992
			C21687,15984.002,21862,16084.002,22034.002,16019.998z M23010.994,15854.002c37.002-20,64.004-44.004,87.002-79.004
			c32.002-47.002,34.004-54.004,30-122.002c-2.998-60-7.998-78.994-32.998-113.994c-45-64.004-110-94.004-205.996-94.004
			c-64.004,0-84.004,4.004-134.004,30c-84.004,42.998-117.998,94.004-122.998,185c-4.004,60.996-1.006,75,22.002,114.004
			c46.992,80.996,125.996,117.998,236.992,111.992C22939.998,15884.002,22970.994,15874.998,23010.994,15854.002z
			 M15947.996,15587.996c437.002-572.998,957.998-1300.996,1151.006-1612.001c100-160,178.994-298.994,278.994-490.996
			c74.004-142.002,92.002-172.002,87.998-140c-2.998,22.002-10,184.004-16.992,360c-8.008,244.004-8.008,450.996,0.996,869.999
			c20.996,995,25.996,1185,32.998,1190.996c2.998,3.008,99.004,3.008,212.002-0.996L17902,15757l-6.006-81.006
			c-2.998-43.994-25.996-700-51.992-1455.995c-25-755.996-48.008-1385-50-1397.002c-4.004-22.002-9.004-22.998-82.002-22.998
			c-42.002,0-134.004,2.998-205,7.002l-127.002,5.996l-57.002,91.006c-237.998,378.994-588.994,901.992-952.998,1420.995
			c-245,347.998-430,625.996-545,815c-47.998,80-90,147.002-92.998,150c-2.002,2.998-2.002-32.998,2.002-80
			c25-327.998,36.992-512.002,45-695c13.994-277.998,55-1704.999,50-1709.003c-2.002-1.992-88.008-5.996-190-8.994l-187.002-7.002
			l-6.006,72.998c-11.992,147.998-120,2876.005-113.994,2882.001c2.998,4.004,103.994,10,225,14.004c120,3.994,225,8.994,235,8.994
			C15802,15769.002,15857.996,15704.002,15947.996,15587.996z M14564.998,15637.996c15-185.996,185-2863.993,180.996-2872.997
			c-1.992-5.996-82.998-15.996-201.992-24.004l-199.004-11.992l-32.002,37.998c-17.002,20.996-113.994,142.002-213.994,267.998
			c-268.008,337.998-503.008,622.002-878.008,1060c-350,409.999-555.996,659.999-685,834.999
			c-42.998,57.998-81.992,105.996-85,107.998c-3.994,1.006,7.002-77.002,25-175c48.008-253.994,106.006-633.994,159.004-1037.997
			c100.996-767.002,162.002-1240,159.004-1242.998c-3.008-5-376.006-52.998-379.004-50c-5,7.002-417.002,2928.993-414.004,2932.001
			c5,3.994,438.008,55.996,465,55.996c34.004,0,633.008-655,1131.006-1237.002c330-385.995,548.994-677.001,727.998-970.995
			c20.996-34.004,40-60,42.002-57.998c2.998,1.992-4.004,61.992-16.006,132.998c-27.998,178.994-56.992,412.998-80.996,652.998
			c-30.996,317.997-130.996,1632.001-124.004,1639.003c6.006,5.996,255,26.992,356.006,28.994l55.996,2.002L14564.998,15637.996z
			 M19717.996,15699.002c146.006-15,326.006-54.004,442.002-94.004c107.002-37.998,234.004-97.002,245-115
			C20412,15477.996,20262,15187,20252,15192c-252.998,135-457.998,190.996-707.002,192.002
			c-165.996,0.996-230-11.006-342.998-64.004c-76.006-35.996-167.998-125-201.006-194.004
			c-72.998-156.992-36.992-337.998,92.002-462.998c74.004-72.002,170-133.994,337.002-215c80-37.998,199.004-95.996,265-128.994
			c319.004-154.999,522.002-349.003,590.996-563.007c35-110,43.008-260,20-375c-36.992-180-107.998-312.998-233.994-432.998
			c-167.002-160-371.006-242.998-662.002-268.994c-297.002-27.002-665,40-935,170c-150,72.998-142.998,50-72.998,231.992l60,157.002
			l112.002-57.998c213.994-112.002,416.992-167.998,645.996-177.002c115-5,162.998-2.002,229.004,11.006
			c260,52.998,415.996,210.996,436.992,443.994c13.008,141.006-30.996,257.998-135,362.998
			c-102.998,103.008-210,167.002-475.996,284.004c-250.996,110-407.998,207.997-535,334.999c-145,144.004-209.004,280-217.002,465
			c-13.994,297.002,146.006,544.004,444.004,687.002C19175.994,15692,19439.002,15729.998,19717.996,15699.002z
			 M22324.998,15334.998c127.002-20,237.002-37.998,245-40.996c35.996-10,325.996-1604.003,469.004-2574.003
			c75-507.002,78.994-535,76.992-537.002c-1.992-2.998-418.994,77.998-423.994,82.002c-2.002,2.002-27.002,155-57.002,340.996
			c-69.004,439.004-100.996,623.008-107.002,629.004c-8.994,9.004-935,159.004-1102.002,177.998
			c-20,2.002-92.998-127.002-352.998-630.996l-125-242.998l-37.002,5c-20,2.998-111.992,15-205.996,26.992
			c-92.998,12.002-170.996,22.002-172.002,23.008c-2.998,2.998,261.006,517.998,420,815.996
			c289.004,544.004,602.002,1109.999,895,1614.999c80,137.998,159.004,272.998,176.006,302.002
			c23.994,42.002,33.994,50.996,50,47.998C22085.994,15372,22199.002,15354.002,22324.998,15334.998z M11382,14519.998
			c160.996-974.003,167.998-1022.001,167.998-1192.997c0-671.006-382.998-1071.006-1115-1167.998
			c-107.002-14.004-300.996-7.002-400,15c-327.002,70.996-564.004,271.992-730.996,620
			c-29.004,60.996-67.002,153.994-84.004,205.996c-32.002,95-460,1829.999-460,1860.995c0,18.008,15.996,23.008,302.002,85
			c70,15,130,26.006,132.002,23.008c1.992-2.002,95-398.008,205-879.003c110.996-480.996,216.992-924.004,236.992-985
			c133.008-407.998,383.008-625,721.006-625c310,0,580.996,150.996,692.998,385c65,135.996,75,192.998,75,410l-0.996,190
			L10962,14364.002c-90,493.994-161.006,902.998-159.004,910c4.004,11.992,362.002,75,412.002,72.998l30-2.002L11382,14519.998z
			 M24489,14922l213-47.998l40-94.004c197.996-470.996,543.992-1369.003,667.996-1734.999c98-287.002,178-584.004,242.004-895
			l12.996-65l52.004,235c28.992,129.004,83.992,350,122,490c80.996,295,478.996,1632.001,488.996,1640.995
			c4.004,4.004,96.004-17.998,205-50c196.004-55,197.996-55.996,192.996-80.996c-8.992-39.004-872.996-2799.999-877.996-2805.995
			c-5-4.004-387.004,101.992-395,110c-2.004,1.992-48,141.992-103,311.992c-150.996,473.008-282,850-537.996,1549.004
			c-117.004,320-220,627.998-272.004,814.999c-17.996,62.998-35.996,119.004-40,122.998c-4.004,5-10.996-10.996-15-35
			c-19.004-120.996-120-612.001-170-822.997c-95.996-412.998-372-1545.996-379.004-1552.002
			c-5.996-5.996-340.994,64.004-361.99,76.006c-8.008,3.994,93.994,461.992,316.99,1435.996
			C24072,14312,24222,14960.994,24224.996,14967.996c3,7.002,14.004,10,27.004,7.002
			C24264.996,14972,24370.992,14947.996,24489,14922z M7807.001,14500.994c260.996-65,438.994-223.994,525.996-465.995
			c81.006-227.998,50-464.004-85.996-665c-46.006-67.002-164.004-185.996-236.006-237.998l-63.994-46.006l83.994-16.992
			c194.004-38.008,344.004-146.006,476.005-344.004c22.002-32.998,90.996-150,152.998-260
			c177.998-317.002,284.004-489.004,337.998-547.002l24.004-27.002l-37.998-10c-22.002-5-115-28.994-208.008-51.992L8607,11787.001
			l-24.004,28.994c-48.994,59.004-155.995,229.004-268.993,426.006c-64.004,112.002-140,238.994-168.008,282.998
			c-146.992,230.996-333.994,327.002-577.998,297.002c-75-9.004-502.002-122.002-515.996-137.002
			c-2.002-2.002,82.002-272.998,187.002-602.998c105-329.004,190.996-604.004,190.996-610c0-6.006-52.998-27.998-117.002-47.002
			c-65-20-150.996-47.002-192.002-60.996c-40.996-13.008-75-23.008-75.996-21.006c-4.004,4.004-925,2772.002-925,2777.998
			c0,8.008,240.996,114.999,365,162.001c250,95,552.998,182.998,745,216.006c165.996,28.994,170,28.994,340,25.996
			C7684.999,14522.996,7745.995,14515.994,7807.001,14500.994z M28450.992,13749.003
			c389.004-39.004,822.004-196.006,1156.008-419.004c65-42.998,138.992-97.998,165.996-122.002l47-42.998l-70.996-80
			c-145-162.002-152-167.998-164.004-159.004c-7,5-49.004,39.004-94.004,75c-278.992,225-731.992,398.008-1090,416.006
			c-270,12.998-520.996-52.002-722.996-187.998c-405.996-273.008-618-927.002-455.996-1404.004
			c92-270.996,317.996-505.996,628.992-654.004c205-97.998,490-180.996,628.008-183.994l75-2.002l166.992,405
			c92.004,222.998,166.008,405.996,165,405.996c0,1.006-128.992,50-285.996,108.008c-157,58.994-297,111.992-310.996,116.992l-27,10
			l55.996,142.002c30,77.998,56.004,144.004,57.996,146.006c6.008,6.992,999.004-371.006,1016.008-388.008
			c5.996-5-540-1302.998-554.004-1315.996c-5.996-5.996-203,15-338,35.996c-619.004,95-1152,343.008-1440,669.004
			c-180,205-285,425-325,685c-22.996,145-15.996,395,15,539.004c65.996,310.996,194.004,563.994,387.004,766.992
			C27457.996,13647.001,27924.996,13802.997,28450.992,13749.003z M5099.999,13684.999
			c215.996-32.998,367.998-114.004,464.004-247.998c88.994-124.004,125.996-236.006,125.996-375
			c0-184.004-85-357.002-257.002-524.004l-80-77.002h117.002c129.004,0,210.996-10.996,310-42.998
			c259.004-82.998,429.004-268.994,490.996-532.998c54.004-235-7.998-489.004-163.994-672.998
			c-190-222.002-522.002-407.002-1077.002-597.002c-175.996-60-370.996-117.002-379.004-110
			c-2.998,2.998-262.998,607.998-576.992,1342.998c-439.004,1024.004-570,1340-561.006,1349.004
			c40,38.994,419.004,225,627.002,307.998C4555.995,13669.999,4845.995,13724.003,5099.999,13684.999z M19082,9942.997
			c153.994-72.002,237.998-202.002,237.998-367.998c0-115-37.002-207.998-120.996-299.004
			c-53.008-57.998-191.006-156.992-266.006-190c-23.994-10.996-42.998-22.998-42.998-27.998s100-120,222.998-255.996
			c122.002-135,229.004-255,237.998-266.006c16.006-18.994,19.004-15.996,67.002,84.004c55,112.002,91.006,225.996,119.004,370
			l17.002,90H19672c137.998,0,128.994,14.004,93.994-140.996c-47.998-213.008-125.996-399.004-215.996-517.002l-40-52.998
			L19672,8202.001l162.002-167.002l-154.004-2.998l-154.004-2.998l-91.992,91.992l-91.006,91.006l-63.994-47.998
			c-74.004-54.004-197.002-115-284.004-139.004c-89.004-25-302.002-30.996-392.998-10.996
			c-387.998,81.992-567.002,480.996-367.998,820c40,67.998,130,155.996,220.996,215.996c44.004,27.998,79.004,55.996,77.998,60.996
			c-2.002,5-17.998,30-37.002,56.006c-87.998,123.994-120,225.996-113.994,367.998c2.998,94.004,5.996,107.998,42.002,179.004
			c61.992,126.992,165.996,213.994,296.992,250.996c37.002,10,91.006,14.004,174.004,12.002
			C19005.994,9974.999,19019.998,9972.997,19082,9942.997z M4439.999,9959.999c184.004-20,314.004-70,412.002-159.004
			c157.002-143.994,193.994-400,85.996-602.998c-42.002-77.998-140-168.994-227.998-210c-37.998-17.998-70-35.996-70-38.994
			c0-3.008,15.996-13.008,35.996-22.002c48.008-22.998,130-102.002,161.006-154.004c40-67.998,60.996-133.994,118.994-360.996
			c46.006-182.998,79.004-294.004,109.004-364.004c7.002-17.002-2.998-17.998-127.998-17.998
			c-119.004,0-136.006,2.002-142.002,17.998c-27.998,67.002-52.998,154.004-100,342.002
			c-62.998,247.002-94.004,319.004-164.004,382.998c-73.994,66.006-125,79.004-322.998,85l-167.998,4.004v-416.006v-415.996h-130
			h-130v949.004v948.994l67.998,11.006C4009.999,9965.995,4285.995,9975.995,4439.999,9959.999z M21327.996,9959.999
			c325-37.002,524.004-189.004,572.998-437.998c25-130,1.006-301.006-58.994-419.004
			c-47.998-93.994-171.006-197.002-299.004-250.996c-130-55-397.002-87.002-535-64.004l-57.998,9.004v-384.004v-382.998h-130h-130
			v949.004v948.994l22.998,5C20827.996,9960.995,21184.998,9977.001,21327.996,9959.999z M22374.998,9949.003
			c117.998-33.008,152.002-187.002,60-268.008c-64.004-55.996-177.998-50.996-229.004,10c-56.992,68.008-55,158.008,5,218.008
			C22255.994,9954.999,22307.996,9967.001,22374.998,9949.003z M28044,9932.001c51.992-30,70.996-67.002,70.996-135
			c0-74.004-19.004-106.006-80.996-137.002c-50-25-97-25-151.004,0c-62.004,27.998-85,70-80.996,147.002
			c3.992,55,7.996,67.002,37,97.002C27892.996,9959.999,27975.992,9970.995,28044,9932.001z M8319.999,9574.999v-165h184.999h185
			v-95v-95h-185h-184.999v-417.002c0-432.998,2.998-470.996,42.998-527.002c40-56.992,139.003-78.994,252.997-56.992l41.006,7.998
			l7.002-60c2.998-32.998,5.996-77.002,5.996-97.002c0-35.996-2.002-37.998-47.002-50.996c-30-9.004-95.996-14.004-172.997-14.004
			c-114.004,0-130,2.002-180,25.996c-74.004,35-125.996,82.002-155.996,142.002c-49.004,96.006-54.004,147.002-54.004,615v432.002
			h-110h-110v95v95h110h110v127.998v127.998l117.998,36.006c64.004,20,122.998,37.002,130,37.002
			C8317.001,9739.999,8319.999,9700.995,8319.999,9574.999z M6087.997,9424.999c194.004-45.996,341.006-197.002,401.006-414.004
			c23.994-85.996,36.992-227.998,26.992-295l-6.992-45.996h-501.006h-500l7.002-57.002c24.004-193.994,122.998-325,290-383.994
			c122.002-42.002,352.002-35,512.002,15.996c52.002,15.996,75,20,77.998,12.002c2.002-7.002,12.998-47.002,24.004-90l18.994-79.004
			l-35.996-15c-97.002-40-227.002-65-377.002-70c-192.998-7.002-280.996,9.004-414.004,72.998
			c-160,79.004-261.992,203.008-320.996,389.004c-27.002,87.002-37.002,267.998-20.996,374.004
			c46.992,300,228.994,516.992,490.996,585C5832.997,9442.997,6007.997,9444.003,6087.997,9424.999z M7504.999,9407.001
			c124.004-41.006,120.996-35,84.004-144.004l-31.006-92.998l-30,15.996c-100,52.002-262.002,78.008-343.994,55
			c-50-12.998-100-45.996-128.008-83.994c-30-40-30-144.004,0-184.004c32.002-42.998,89.004-77.998,194.004-118.994
			c222.002-87.002,335.996-168.008,390-279.004c22.002-42.998,25-64.004,25-155c0-95-2.998-110.996-29.004-167.002
			c-53.994-117.002-176.992-205-331.992-237.998c-88.008-19.004-241.006-19.004-336.006-0.996c-90,17.998-217.998,63.994-225,81.992
			c-3.994,11.006,39.004,160,54.004,186.006c2.002,3.994,25-2.998,50.996-16.006c95-47.998,190-70.996,297.002-70.996
			c90,0,105.996,2.998,157.002,27.998c32.002,16.006,65.996,40,77.002,55c26.992,39.004,41.992,104.004,35,152.002
			c-14.004,89.004-77.002,142.002-250,209.004c-193.008,75.996-307.002,158.994-356.006,260
			c-18.994,38.994-22.998,61.992-22.998,145.996c0,90.996,2.998,105,29.004,157.998c35,67.998,112.998,145,185,181.006
			c85.996,43.994,151.992,55.996,295.996,51.992C7402.001,9434.003,7439.003,9427.997,7504.999,9407.001z M9609.002,9424.999
			c177.998-42.002,305-172.998,350.996-360c7.998-32.998,15-207.998,20-515c5-255.996,10.996-477.002,15-492.002l7.002-27.998h-120
			h-120l-6.006,47.998c-3.994,26.006-8.994,64.004-11.992,85l-6.006,37.998l-57.002-53.994
			c-100-96.006-231.992-147.002-380.996-147.002c-230.996,0-397.002,127.998-432.998,334.004
			c-30,177.998,55.996,346.992,227.998,450.996c117.998,70.996,357.002,125,550.996,125c71.006,0,74.004,0.996,74.004,22.998
			c0,45-22.002,142.002-40,177.002c-27.998,54.004-92.002,107.002-150.996,124.004c-116.006,35-306.006,11.992-446.006-53.008
			l-62.002-28.994l-25,75.996c-13.994,42.998-25.996,82.002-25.996,87.998c0,25,165.996,87.002,315,118.008
			C9337.996,9444.003,9549.998,9439.003,9609.002,9424.999z M12717.996,9317.997l2.998-117.998h-75
			c-171.992,0-291.992-89.004-347.998-259.004c-20.996-62.998-22.002-85.996-25.996-487.998l-2.998-422.998h-130h-129.004v607.998
			c0,334.004-2.998,644.004-7.002,690l-5.996,82.002h115h115.996l7.002-135.996l7.002-135l28.994,55.996
			c81.006,160.996,212.002,247.002,369.004,242.002l75-2.002L12717.996,9317.997z M13644.998,9410.995
			c147.998-52.998,239.004-150,290-310.996c15.996-47.998,19.004-117.998,25.996-515c5-252.998,12.002-482.002,17.002-507.998
			l9.004-47.998l-121.006,2.998l-120.996,2.998l-9.004,80c-5,44.004-8.994,80.996-10,82.002c-0.996,0.996-27.998-22.002-60-52.002
			c-107.998-102.998-245.996-150.996-410.996-142.998c-155.996,7.998-265,62.998-337.998,170c-54.004,80-70,140.996-65,252.002
			c2.998,83.994,7.998,101.992,40.996,168.994c45,92.002,116.006,160,222.002,212.002c122.998,60,340,105,512.998,105h72.002v47.998
			c0,117.998-57.002,217.998-147.998,260c-115,52.998-314.004,40-475-30.996c-31.006-15-60-27.002-64.004-27.002
			c-3.994-0.996-18.994,34.004-35,77.002l-28.994,77.998l20.996,17.002c29.004,23.994,162.002,72.998,245,92.002
			C13319.998,9447.001,13564.002,9439.999,13644.998,9410.995z M15224.998,9424.999c132.002-35,237.998-122.002,299.004-247.002
			c60.996-123.994,65.996-172.002,65.996-688.994v-459.004h-129.004h-130l-2.998,457.998c-3.994,442.002-5,459.004-25.996,524.004
			c-31.006,90.996-75,145.996-147.002,182.998c-52.002,27.002-67.998,30-149.004,30c-78.994,0-98.994-4.004-152.998-29.004
			c-75.996-35-143.994-103.994-180.996-183.994l-27.002-57.002l-2.998-462.002l-2.998-462.998h-128.008h-127.998l-5,672.998
			c-2.998,369.004-8.994,680-12.998,690c-7.002,16.006,2.002,17.002,112.998,17.002h120l7.998-112.002
			c7.002-107.002,8.008-110.996,22.002-87.998c29.004,47.002,127.002,135,182.002,165c30,15.996,82.002,37.002,115,45.996
			C15002,9442.997,15147,9444.999,15224.998,9424.999z M16744.998,9412.001c82.002-30,160.996-86.006,209.004-149.004l40.996-52.998
			l2.002,57.998c2.002,31.006,5,76.006,8.994,100l5,42.002h112.002h112.002l-2.002-602.002
			c-3.994-780-12.002-880.996-90.996-1047.998c-107.998-230.996-392.998-354.004-741.006-320
			c-120,12.002-252.998,45.996-323.994,80.996c-22.998,12.002-44.004,23.008-46.006,25c-2.998,3.008,59.004,194.004,63.008,194.004
			c1.992,0,32.998-14.004,70-30c103.994-47.002,213.994-70,342.998-70c318.994,0,462.998,160,462.998,515v105.996l-54.004-57.998
			c-103.994-112.002-227.998-162.998-395.996-163.994c-172.998-1.006-300.996,50-415.996,165c-150,150-215,352.998-193.008,597.998
			c18.008,190.996,80,330,204.004,452.998c85.996,87.002,165.996,135.996,270,167.002
			C16472,9447.997,16662,9442.001,16744.998,9412.001z M26109,9424.999c240-57.002,398-267.998,426.992-572.002
			c3.008-38.994,3.008-97.002,0-127.002l-6.992-55.996h-501.004H25527l7-57.002c21.992-190,123.996-325.996,288.996-382.998
			c125-42.998,360-35.996,512,15c39.004,12.998,73,20,75.996,17.002c7.004-7.998,39.004-146.006,39.004-167.998
			c0-14.004-105.996-51.006-215-75c-95-21.006-394.004-19.004-475,3.994c-230,65-392,227.002-455,452.998
			c-22,79.004-30.996,282.002-15.996,370c33.996,198.008,126.992,367.002,255,464.004c66.992,50.996,161.992,97.002,233,114.004
			C25854.996,9442.997,26029,9442.997,26109,9424.999z M27559.996,9317.997v-122.998H27467c-80-0.996-99.004-4.004-142.004-27.002
			c-57.996-30-124.004-97.002-154.004-157.002c-50.996-97.998-53.992-130-57.996-567.998l-5-412.998H26979h-129.004v652.998
			c0,357.998-2.996,669.004-5.996,690l-7,37.002h115h115.996l6.004-30.996c3-17.002,5.996-79.004,5.996-138.008v-105.996l33,60
			c87,162.998,211.004,244.004,370,245h77V9317.997z M29149,9424.999c173.996-40.996,281.992-140.996,338.996-314.004
			c25-75,26.004-80,32.996-535.996c4.004-252.998,10-479.004,14.004-502.002l8-42.998H29422h-121.008l-6.992,80
			c-3.008,44.004-10,82.998-14.004,85c-4.004,2.998-15-5.996-24.004-19.004c-25-38.994-141.992-116.992-215-143.994
			c-88.992-32.998-238.992-41.006-330.996-17.998c-210,53.994-332.996,240-300,452.998
			c30.996,197.002,179.004,332.998,432.004,397.002c110,27.998,243.992,45.996,347,45.996h73.996l-5.996,62.998
			c-12.004,127.002-56.008,200-145,244.004c-111.008,53.994-321.008,40.996-476.008-30c-27.996-12.998-55-25-60.996-27.998
			c-7.996-4.004-65,131.992-65,156.992c0,23.008,199.004,98.008,310,117.002C28884.996,9444.003,29089,9439.003,29149,9424.999z
			 M10652,8942.997c3.994-517.998,3.994-520.996,70.996-618.994c22.998-36.006,47.998-57.002,91.006-79.004
			c52.998-27.002,68.994-30,145-30c71.992,0.996,95,5,145.996,27.998c72.002,34.004,147.002,104.004,182.998,172.002l27.002,50
			l2.998,472.998l2.998,472.002h134.004h135v-652.002c0-358.994,2.998-670,5.996-690l7.002-37.998h-122.002h-120.996l-0.996,57.998
			c-1.006,31.006-4.004,81.006-7.002,111.006l-7.002,52.998l-34.004-46.006c-63.994-90.996-190-170-308.994-195
			c-75-15.996-197.002-13.994-267.002,4.004c-82.002,22.002-147.002,60-204.004,120c-58.994,62.002-95,130-123.994,232.998
			c-20,72.998-21.006,104.004-25,560l-2.998,482.002h135h135L10652,8942.997z M22459.998,8719.999v-690h-130h-130v690v690h130h130
			V8719.999z M23869.996,9332.997v-77.998l-340.994-430c-188.008-235.996-372.002-465.996-409.004-510l-67.998-80l413.994-2.998
			l414.002-2.002v-100v-100h-579.998h-580v72.998v72.002l320.996,405c176.006,222.998,364.004,455,416.006,515l95.996,110
			l-385.996,2.998l-387.002,2.002v100v100h545h544.998V9332.997z M25129.996,9332.997l-0.996-77.998l-374.004-470
			C24549,8527.001,24364,8295.995,24344,8272.997l-37-42.998h417h415.996v-100v-100h-580h-580v74.004v72.998L24317,8600.995
			c185,233.008,372,465,415.996,514.004l79.004,90l-386.008,2.998l-385.996,2.002v100v100h545h545V9332.997z M28089.996,8719.999
			v-690h-130h-130v690v690h130h130V8719.999z M14779.002,6734.999c27.998-14.004,60.996-67.998,60.996-100
			s-32.998-85.996-60.996-100c-106.006-55-218.008,50.996-164.004,155C14642.996,6744.999,14719.998,6765.995,14779.002,6734.999z
			 M15095.994,6715.995c29.004-28.994,34.004-40.996,34.004-80.996s-5-52.002-34.004-80.996
			C15067,6525,15054.998,6520,15014.998,6520s-52.002,5-80.996,34.003c-29.004,28.994-34.004,40.996-34.004,80.996
			s5,52.002,34.004,80.996c28.994,29.004,40.996,34.004,80.996,34.004S15067,6744.999,15095.994,6715.995z M14199.002,6365.996
			c40.996-13.994,82.998-33.994,93.994-43.994c17.998-19.004,17.998-20-12.998-82.998c-47.002-94.004-42.002-92.002-114.004-58.008
			c-123.994,58.008-228.994,60-291.992,6.006c-20-17.998-28.008-35-31.006-72.998c-5-46.006-2.002-54.004,26.006-86.006
			c20-22.998,77.998-60,162.998-103.994c142.002-73.008,217.002-135,258.994-214.004c21.006-40,24.004-57.998,24.004-155
			c0-90.996-4.004-117.998-20.996-155.996c-77.002-167.002-253.008-232.002-492.002-183.008c-76.006,15-192.002,60-192.002,74.004
			c0,10.996,37.002,115.996,49.004,137.998c10,20,11.992,20,86.992-8.994c41.006-17.002,110-35,152.002-41.006
			c71.006-10,81.006-10,125,10c60,26.006,81.006,70,75,150c-7.002,76.006-40.996,107.002-212.998,192.002
			c-95,47.002-154.004,82.998-184.004,112.002c-70,68.994-75.996,87.002-75.996,217.998c0,99.004,2.998,120.996,22.002,155.996
			c47.002,88.008,115.996,144.004,212.002,171.006C13934.002,6407.998,14109.002,6397.998,14199.002,6365.996z M17139.998,6372.001
			c35.996-12.002,80-31.006,97.998-42.002l32.002-20l-40-80l-40-79.004l-70,33.008c-165.996,80-292.002,42.998-342.998-99.004
			c-52.002-149.004-45-490,12.998-605c45-87.998,137.002-125.996,235-99.004l50,15l2.998,126.006l2.998,127.002l-77.998,2.998
			l-77.998,2.998v80v80l174.004,2.998c132.998,2.002,175.996-0.996,182.998-10c3.994-7.002,7.998-118.994,7.998-247.998
			c0-267.002,0.996-264.004-77.998-304.004c-120-60.996-326.006-72.998-447.002-25.996c-114.004,44.004-202.998,160-242.002,317.002
			c-23.994,97.002-23.994,400,0,497.002c47.002,186.992,152.998,307.998,304.004,345.996
			C16892,6405.996,17067,6395.996,17139.998,6372.001z M18500.994,6380c76.006-22.998,159.004-72.998,159.004-95
			c0-19.004-77.002-135-89.004-135c-5,0-35,15.996-65.996,35c-70,42.002-107.998,50-162.998,35.996
			c-82.998-22.998-122.002-90-142.998-250c-14.004-105-6.006-322.998,16.992-421.992
			c37.002-163.008,149.004-218.008,294.004-144.004c27.002,14.004,57.998,25,67.998,25c20,0,82.002-99.004,82.002-130
			c0-24.004-65.996-62.998-144.004-85c-88.994-25.996-241.992-17.002-317.998,17.002c-115,52.998-185.996,148.994-225,303.994
			c-12.998,53.008-17.002,111.006-17.002,254.004c0,159.004,3.008,195.996,22.002,265
			c52.002,185.996,151.006,302.002,289.004,334.004C18334.002,6405,18434.002,6400.996,18500.994,6380z M9174.002,6342.001
			c75-34.004,110.996-66.006,140-124.004c21.992-42.998,25.996-65,25.996-132.002c0-56.992-5.996-92.998-19.004-120.996
			c-16.992-37.002-72.998-95.996-116.992-120.996c-17.002-10-14.004-14.004,32.998-37.002
			c103.994-52.998,147.998-142.002,140.996-286.006c-5-95.996-23.994-145.996-78.994-198.994c-76.006-74.004-160-92.002-435-92.002
			c-175,0-203.008,2.002-208.008,15.996c-7.998,21.006-7.998,1088.008,0,1109.004c6.006,15,29.004,15.996,238.008,12.998
			C9107.996,6365,9129.002,6362.998,9174.002,6342.001z M10094.998,6349.003c82.002-25,142.998-77.002,175.996-152.002
			c33.008-72.002,34.004-229.004,3.008-297.998c-28.008-59.004-78.008-115-126.006-140c-35-18.008-37.002-22.002-27.002-42.002
			c7.002-12.002,66.006-117.998,131.006-235c65.996-117.998,117.002-219.004,115-226.006c-6.006-15-165-60-192.998-55
			c-14.004,3.008-54.004,74.004-143.008,257.002l-125,252.002h-37.998h-37.998l-2.002-237.002L9824.998,5235h-110h-110L9602,5790
			c-1.006,305,0,560.996,2.998,567.998c2.998,9.004,55,12.002,214.004,12.002C10002,6370,10035.994,6367.001,10094.998,6349.003z
			 M10749.998,5925c5-470,5-470.996,55.996-517.002c48.008-42.002,178.008-45.996,229.004-5.996c60,47.002,60,42.998,65,522.998
			l5,440h110h110v-450c0-444.004,0-450.996-22.998-505.996c-62.002-153.008-187.002-217.002-407.998-207.002
			c-223.008,10.996-333.008,97.998-364.004,287.998c-10.996,72.002-14.004,862.998-2.998,874.004
			c3.994,2.998,53.994,5,112.002,3.994l105.996-2.998L10749.998,5925z M11960.994,6070c87.002-162.002,170-327.998,186.006-367.998
			l27.998-72.998l5,367.998l5,367.998l89.004,2.998c65,2.002,91.992-0.996,97.998-10c10-17.002,10-1098.994-1.006-1115.996
			c-5-9.004-30.996-12.002-90.996-10L12197,5235l-172.998,320c-96.006,175.996-187.002,352.002-203.008,390l-30,70l-0.996-392.002
			V5230h-95h-95v570v570.996l102.002-2.998l100.996-2.998L11960.994,6070z M13010.994,6070
			c87.002-162.002,170-327.998,186.006-367.998l27.998-72.998l5,367.998l5,367.998l89.004,2.998c65,2.002,91.992-0.996,97.998-10
			c10-17.002,10-1098.994-1.006-1115.996c-5-9.004-30.996-12.002-90.996-10L13247,5235l-172.998,320
			c-96.006,175.996-187.002,352.002-203.008,390l-30,70l-0.996-392.002V5230h-95h-95v570v570.996l102.002-2.998l100.996-2.998
			L13010.994,6070z M15152,5815c92.002-302.002,167.998-557.998,167.998-567.002c0-15.996-12.002-17.998-119.004-17.998H15082
			l-11.006,32.998c-5,17.002-23.994,87.002-41.992,155L14997,5540h-141.006h-141.992l-33.008-137.002
			c-18.994-75.996-37.998-145.996-42.998-155c-7.002-15.996-23.994-17.998-117.998-17.998c-60,0-110.996,2.998-112.998,7.998
			c-4.004,5,310.996,1051.006,335.996,1117.002c6.006,12.998,24.004,15,124.004,12.998l117.002-2.998L15152,5815z M15860.994,6070
			c87.002-162.002,170-327.998,186.006-367.998l27.998-72.998l5,367.998l5,367.998l89.004,2.998c65,2.002,91.992-0.996,97.998-10
			c10-17.002,10-1098.994-1.006-1115.996c-5-9.004-30.996-12.002-90.996-10L16097,5235l-172.998,320
			c-96.006,175.996-187.002,352.002-203.008,390l-30,70l-0.996-392.002V5230h-95h-95v570v570.996l102.002-2.998l100.996-2.998
			L15860.994,6070z M19459.998,6352.001c0-25-30-124.004-42.002-139.004c-7.002-8.994-60.996-12.998-182.002-15l-170.996-2.998
			l-2.998-137.002l-2.998-137.998h160.996h160v-85v-84.004l-157.002-2.998l-157.998-2.998l-2.998-172.002l-2.002-172.998
			l197.002-2.002l197.998-2.998v-80v-80l-304.004-2.998c-236.992-2.002-305.996,0.996-312.998,10
			c-8.994,15-10.996,1087.998-2.002,1112.002c5,13.994,43.008,15.996,315,15.996
			C19442.996,6370,19459.998,6369.003,19459.998,6352.001z M20020.994,6070c87.002-162.002,170-327.998,186.006-367.998
			l27.998-72.998l5,367.998l5,367.998l89.004,2.998c65,2.002,91.992-0.996,97.998-10c10-17.002,10-1098.994-1.006-1115.996
			c-5-9.004-30.996-12.002-90.996-10L20257,5235l-172.998,320c-96.006,175.996-187.002,352.002-203.008,390l-30,70l-0.996-392.002
			V5230h-95h-95v570v570.996l102.002-2.998l100.996-2.998L20020.994,6070z M21327,6327.998
			c-4.004-23.994-14.004-67.998-24.004-97.998l-17.998-55l-117.002-2.998l-117.998-2.998l-2.002-467.002l-2.998-467.002h-110h-110
			l-2.998,467.002l-2.002,467.002l-122.998,2.998l-122.002,2.998l-2.998,84.004c-2.002,45.996-1.006,90,2.002,97.998
			c3.994,10,76.992,12.998,381.992,12.998h377.002L21327,6327.998z M21944.998,6349.003c82.002-25,142.998-77.002,175.996-152.002
			c33.008-72.002,34.004-229.004,3.008-297.998c-28.008-59.004-78.008-115-126.006-140c-35-18.008-37.002-22.002-27.002-42.002
			c7.002-12.002,66.006-117.998,131.006-235c65.996-117.998,117.002-219.004,115-226.006c-6.006-15-165-60-192.998-55
			c-14.004,3.008-54.004,74.004-143.008,257.002l-125,252.002h-37.998h-37.998l-2.002-237.002l-2.998-237.998h-110h-110l-2.998,555
			c-1.006,305,0,560.996,2.998,567.998c2.998,9.004,55,12.002,214.004,12.002C21852,6370,21885.994,6367.001,21944.998,6349.003z
			 M22599.998,5925c5-470,5-470.996,55.996-517.002c48.008-42.002,178.008-45.996,229.004-5.996c60,47.002,60,42.998,65,522.998
			l5,440h110h110v-450c0-444.004,0-450.996-22.998-505.996c-62.002-153.008-187.002-217.002-407.998-207.002
			c-223.008,10.996-333.008,97.998-364.004,287.998c-10.996,72.002-14.004,862.998-2.998,874.004
			c3.994,2.998,53.994,5,112.002,3.994l105.996-2.998L22599.998,5925z M23744.998,6192.998
			c84.004-262.002,112.998-357.998,120.994-397.002c10-53.994,19.004-50.996,33.008,12.002c6.992,31.006,51.992,170,98.996,307.002
			l87,250l108,2.998c104.004,2.998,107.996,2.002,116.004-20c6.992-20,51.992-962.002,50.996-1075V5230h-104.004
			c-57.996,0-106.992,4.004-110,7.998c-1.992,4.004-6.992,145-10.996,312.002c-2.996,167.998-7.996,347.998-12,400l-5.996,95
			l-19.004-85c-10-47.002-45.996-174.004-80-282.002L23957,5480h-83h-83.006l-8.994,32.998c-5,17.002-30,102.002-56.006,187.002
			c-25,85-56.992,202.002-70,260l-22.998,105l-7.998-285c-4.004-157.002-10-342.998-14.004-415l-5.996-130l-89.004-2.998
			c-48.994-2.002-92.998,0.996-96.992,5c-8.008,7.998,36.992,1097.002,45.996,1120.996c2.998,7.998,35,12.002,114.004,12.002h110
			L23744.998,6192.998z"/>
		<path fill="#E41E25" d="M22147.996,14800.994c-52.998-107.998-192.998-365-310.996-570.996
			c-117.002-205.995-232.002-409.003-255-449.999l-41.006-75.996l187.002-27.002c241.006-36.006,732.002-116.006,755-122.998
			c16.006-5,17.002-1.006,11.006,32.998c-3.008,20.996-38.008,205-76.006,407.998c-37.998,204.004-80.996,427.997-93.994,497.997
			c-13.008,71.006-35,212.002-48.008,312.998c-12.998,102.002-25,186.006-26.992,188.008
			C22247,14994.998,22200.994,14909.002,22147.996,14800.994z"/>
		<path fill="#E41E25" d="M7249.999,14192.997c-169.004-27.002-369.004-85.996-527.998-155
			c-82.998-35.996-92.002-42.998-86.006-62.002c198.008-622.998,317.002-992.998,323.008-997.998
			c7.998-8.994,460,121.006,550.996,157.998c117.998,49.004,202.002,105,285.996,188.008c175,175,210,380,103.008,602.998
			c-86.006,180-265,275-513.008,272.002C7324.999,14197.997,7264.003,14194.999,7249.999,14192.997z"/>
		<path fill="#E41E25" d="M4729.999,13364.003c-87.002-11.006-202.998-39.004-304.004-74.004
			c-205-70.996-402.998-164.004-398.994-187.002c2.002-8.994,352.998-865.996,357.002-868.994
			c3.994-5,450.996,170.996,508.994,200.996c267.998,135.996,412.002,349.004,377.998,555
			c-28.994,175.996-131.992,302.002-285.996,349.004C4922.001,13359.003,4792.001,13370.995,4729.999,13364.003z"/>
		<path fill="#E41E25" d="M5167.997,12169.003c-118.994-14.004-248.994-51.006-458.994-130
			c-107.002-39.004-198.008-75-202.002-79.004c-4.004-4.004,87.998-239.004,205-522.998
			c160.996-392.998,215.996-517.002,228.994-517.002c20,0,235,70.996,339.004,112.002
			c259.004,102.002,447.998,247.002,527.002,400.996c35,70,55.996,179.004,47.998,251.006c-25.996,238.994-170,413.994-385.996,470
			C5392.997,12172.997,5259.999,12179.999,5167.997,12169.003z"/>
		<path fill="#E41E25" d="M18780.994,9794.999c-50.996-15.996-103.994-64.004-133.994-120c-32.002-62.002-35-190.996-7.002-275
			c19.004-57.002,97.002-190.996,119.004-204.004c8.994-5.996,101.992,50,180,108.008c91.992,67.998,150.996,170,150.996,260.996
			c0,62.998-30.996,137.998-74.004,180.996C18954.998,9807.997,18874.998,9824.003,18780.994,9794.999z"/>
		<path fill="#E41E25" d="M18584.002,8910.995c-121.006-96.992-176.006-202.998-176.006-335.996c0-222.998,169.004-385,402.998-385
			c64.004,0,190,30,246.006,57.998c48.994,26.006,147.998,100,147.998,111.006c0,5-77.002,91.992-170,192.998
			c-94.004,100.996-217.002,233.994-274.004,295.996c-56.992,61.006-105.996,112.002-108.994,112.002
			C18647.996,8959.003,18617.996,8937.001,18584.002,8910.995z"/>
		<path fill="#E41E25" d="M4109.999,9762.997c-14.004-2.002-35-5.996-47.002-7.998l-22.998-5v-352.002v-350.996l182.998,5.996
			c107.998,2.998,202.002,11.006,232.002,20c120,34.004,214.004,107.002,257.002,202.002c32.002,70,32.998,217.998,2.002,285.996
			c-47.002,101.006-138.008,166.006-272.002,195C4380.995,9767.997,4174.003,9772.997,4109.999,9762.997z"/>
		<path fill="#E41E25" d="M21079.998,9764.003c-25-2.002-64.004-6.006-87.002-10l-42.998-5v-374.004v-374.004l55.996-6.992
			c31.006-3.008,115-4.004,187.002-2.002c107.002,3.994,144.004,10,197.998,30c180,67.002,268.008,203.994,257.002,400
			c-7.998,132.002-72.998,235-182.998,287.998C21379.002,9750.995,21210.994,9774.999,21079.998,9764.003z"/>
		<path fill="#E41E25" d="M5809.003,9247.001c-97.002-27.998-184.004-99.004-231.006-192.002
			c-27.998-52.998-57.998-142.998-57.998-172.002v-22.998h370h370v42.998c0,135-75,264.004-185,317.998
			C6000.995,9257.001,5885.995,9269.003,5809.003,9247.001z"/>
		<path fill="#E41E25" d="M9499.998,8722.997c-174.004-20-305.996-90.996-350.996-187.998c-25-54.004-25-165,0-220.996
			c38.994-86.006,128.994-130,250-122.002c130.996,10,237.998,80,291.992,192.998c28.008,57.002,29.004,65.996,29.004,202.998
			v142.002l-92.002-2.002C9577,8727.997,9519.002,8724.999,9499.998,8722.997z"/>
		<path fill="#E41E25" d="M13439.002,8714.003c-154.004-28.008-247.002-78.008-296.006-161.006
			c-23.994-42.002-27.998-57.998-27.998-127.998c0-102.002,25.996-155,99.004-200c45.996-27.998,55.996-30,145-30
			c82.998,0,103.994,4.004,151.992,25.996c70,33.008,129.004,91.006,166.006,161.006c25,48.994,27.002,62.998,30.996,200.996
			l4.004,147.002l-97.998-0.996C13559.002,8729.003,13480.994,8722.001,13439.002,8714.003z"/>
		<path fill="#E41E25" d="M16487,9229.999c-51.006-12.998-94.004-35.996-145-77.002
			c-207.998-168.994-227.998-610.996-37.998-807.002c138.994-142.998,381.992-152.998,531.992-21.992
			c108.008,95,139.004,205,132.002,471.992c-3.994,154.004-5.996,163.008-35,227.002c-38.994,82.002-105.996,150-180.996,185
			c-45,20-75,26.006-142.002,29.004C16562.996,9237.997,16507.996,9234.999,16487,9229.999z"/>
		<path fill="#E41E25" d="M25829,9247.001c-138.008-39.004-245-162.002-283.008-327.002l-13.992-60h373.992h374.004v44.004
			c0,58.994-32.996,161.992-70,217.998c-32,48.994-80.996,87.002-145,113.994C26012.996,9257.001,25887,9262.997,25829,9247.001z"/>
		<path fill="#E41E25" d="M29024.996,8719.999c-230.996-34.004-355-135-355-290.996c0-107.002,40.996-177.002,128-217.002
			c47.996-22.002,64.004-24.004,136.004-20c103.996,7.002,175.996,38.994,240,107.998c75.996,80.996,88.996,120.996,93.996,287.998
			l5,142.002l-98.996-0.996C29119,8727.997,29052,8724.003,29024.996,8719.999z"/>
		<path fill="#E41E25" d="M8889.998,6049.003v-152.002l65,5.996c117.998,11.006,155,49.004,155,157.002c0,54.004-2.998,65-27.998,90
			c-32.002,32.002-86.006,50-149.004,50h-42.998V6049.003z"/>
		<path fill="#E41E25" d="M8889.998,5565v-167.998l82.002,7.002c48.994,3.994,95,13.994,112.998,23.994
			c87.002,51.006,87.002,224.004-0.996,274.004c-20,10.996-63.008,20.996-113.008,25l-80.996,5.996V5565z"/>
		<path fill="#E41E25" d="M9829.998,6040v-162.998l70.996,7.002c39.004,2.998,84.004,12.998,101.006,21.992
			c55.996,29.004,82.998,132.002,55,214.004c-17.002,47.998-60,70-152.002,77.002l-75,5.996V6040z"/>
		<path fill="#E41E25" d="M14850.994,6170c-0.996-2.998-7.998-42.002-15.996-87.998c-12.002-67.002-67.002-295-90.996-374.004
			c-5-15.996,3.994-17.998,100-17.998c61.992,0,105.996,4.004,105.996,10c0,5-15.996,75.996-35.996,157.002
			c-19.004,80.996-41.006,185.996-49.004,232.998C14857.996,6137.001,14850.994,6172.998,14850.994,6170z"/>
		<path fill="#E41E25" d="M21679.998,6040v-162.998l70.996,7.002c39.004,2.998,84.004,12.998,101.006,21.992
			c55.996,29.004,82.998,132.002,55,214.004c-17.002,47.998-60,70-152.002,77.002l-75,5.996V6040z"/>
	</g>
</g>
</svg>
