<?xml version="1.0" encoding="utf-8"?>
<!-- Generator: Adobe Illustrator 16.0.0, SVG Export Plug-In . SVG Version: 6.00 Build 0)  -->
<!DOCTYPE svg PUBLIC "-//W3C//DTD SVG 1.1//EN" "http://www.w3.org/Graphics/SVG/1.1/DTD/svg11.dtd">
<svg version="1.1" id="Layer_1" xmlns:sketch="http://www.bohemiancoding.com/sketch/ns"
	 xmlns="http://www.w3.org/2000/svg" xmlns:xlink="http://www.w3.org/1999/xlink" x="0px" y="0px" width="24px" height="24px"
	 viewBox="0 0 24 24" enable-background="new 0 0 24 24" xml:space="preserve">
<title></title>
<desc></desc>
<g id="miu">
	<g id="Artboard-1" transform="translate(-899.000000, -515.000000)">
		<g id="slice" transform="translate(215.000000, 119.000000)">
		</g>
		<path id="food-pizza-fastfood-glyph" fill="#EA3434" d="M907.732,517.139l0.54-1.679c0,0,4.11,2.059,6.783,4.895
			c2.677,2.836,4.487,7.061,4.487,7.061l-1.706,0.439c-0.073-0.156-1.319-3.393-4.059-6.297
			C911.042,518.655,907.911,517.234,907.732,517.139z M917.198,528.02l-14.14,3.646l4.47-13.901
			c1.415,0.759,3.902,2.252,5.778,4.241C915.179,523.99,916.524,526.561,917.198,528.02L917.198,528.02L917.198,528.02z
			 M907.43,525.285c0.374,0.396,1.013,0.399,1.425,0.012c0.415-0.392,0.447-1.028,0.075-1.427c-0.374-0.396-1.013-0.401-1.426-0.009
			C907.089,524.252,907.057,524.891,907.43,525.285L907.43,525.285z M910.104,524.117c0.376,0.397,1.015,0.401,1.426,0.011
			c0.416-0.391,0.447-1.028,0.075-1.425c-0.372-0.396-1.011-0.4-1.427-0.012C909.767,523.083,909.731,523.722,910.104,524.117
			L910.104,524.117z M906.758,529.082c0.374,0.393,1.011,0.398,1.426,0.01c0.414-0.391,0.448-1.028,0.073-1.426
			c-0.373-0.396-1.01-0.399-1.424-0.009C906.419,528.046,906.385,528.684,906.758,529.082L906.758,529.082z M912.084,527.219
			c0.373,0.396,1.013,0.399,1.428,0.011c0.413-0.391,0.447-1.029,0.073-1.424c-0.371-0.396-1.011-0.4-1.426-0.011
			C911.745,526.183,911.712,526.824,912.084,527.219L912.084,527.219z"/>
	</g>
</g>
<text transform="matrix(1 0 0 1 2.875 23.4932)" font-family="'Roboto-Regular'" font-size="6.4426">MENY</text>
</svg>
